<mxfile host="app.diagrams.net" modified="2024-02-24T23:02:09.777Z" agent="Mozilla/5.0 (Windows NT 10.0; Win64; x64) AppleWebKit/537.36 (KHTML, like Gecko) Chrome/121.0.0.0 Safari/537.36" etag="2pNYG3xeoxVw3-Ug6rXa" version="23.1.5" type="github" pages="2">
  <diagram name="program.py" id="E5gF8-WEgm_lppiwT_IF">
    <mxGraphModel dx="1434" dy="746" grid="1" gridSize="10" guides="1" tooltips="1" connect="1" arrows="1" fold="1" page="1" pageScale="1" pageWidth="827" pageHeight="1169" math="0" shadow="0">
      <root>
        <mxCell id="0" />
        <mxCell id="1" parent="0" />
        <mxCell id="L6Xld-LW8p7NnnAA7x7a-1" value="&lt;h1&gt;PEP8-parser&lt;/h1&gt;&lt;div&gt;&lt;br&gt;&lt;/div&gt;" style="text;html=1;strokeColor=none;fillColor=none;spacing=5;spacingTop=-20;whiteSpace=wrap;overflow=hidden;rounded=0;" parent="1" vertex="1">
          <mxGeometry x="30" y="10" width="190" height="50" as="geometry" />
        </mxCell>
        <mxCell id="L6Xld-LW8p7NnnAA7x7a-91" style="edgeStyle=orthogonalEdgeStyle;rounded=0;orthogonalLoop=1;jettySize=auto;html=1;exitX=1;exitY=0.5;exitDx=0;exitDy=0;entryX=0;entryY=0.5;entryDx=0;entryDy=0;" parent="1" source="L6Xld-LW8p7NnnAA7x7a-87" target="L6Xld-LW8p7NnnAA7x7a-88" edge="1">
          <mxGeometry relative="1" as="geometry" />
        </mxCell>
        <mxCell id="L6Xld-LW8p7NnnAA7x7a-92" style="edgeStyle=orthogonalEdgeStyle;rounded=0;orthogonalLoop=1;jettySize=auto;html=1;exitX=1;exitY=0.5;exitDx=0;exitDy=0;entryX=0;entryY=0.5;entryDx=0;entryDy=0;" parent="1" source="L6Xld-LW8p7NnnAA7x7a-87" target="L6Xld-LW8p7NnnAA7x7a-89" edge="1">
          <mxGeometry relative="1" as="geometry" />
        </mxCell>
        <mxCell id="L6Xld-LW8p7NnnAA7x7a-101" style="edgeStyle=orthogonalEdgeStyle;rounded=0;orthogonalLoop=1;jettySize=auto;html=1;exitX=0.5;exitY=0;exitDx=0;exitDy=0;entryX=0;entryY=0.5;entryDx=0;entryDy=0;" parent="1" source="L6Xld-LW8p7NnnAA7x7a-87" target="L6Xld-LW8p7NnnAA7x7a-100" edge="1">
          <mxGeometry relative="1" as="geometry" />
        </mxCell>
        <mxCell id="VoekotqQAeG9E4cFTFF6-2" style="edgeStyle=orthogonalEdgeStyle;rounded=0;orthogonalLoop=1;jettySize=auto;html=1;exitX=1;exitY=0.5;exitDx=0;exitDy=0;entryX=0;entryY=0.5;entryDx=0;entryDy=0;" edge="1" parent="1" source="L6Xld-LW8p7NnnAA7x7a-87" target="VoekotqQAeG9E4cFTFF6-1">
          <mxGeometry relative="1" as="geometry" />
        </mxCell>
        <mxCell id="L6Xld-LW8p7NnnAA7x7a-87" value="main()" style="rounded=0;whiteSpace=wrap;html=1;" parent="1" vertex="1">
          <mxGeometry x="50" y="250" width="90" height="60" as="geometry" />
        </mxCell>
        <mxCell id="L6Xld-LW8p7NnnAA7x7a-94" style="edgeStyle=orthogonalEdgeStyle;rounded=0;orthogonalLoop=1;jettySize=auto;html=1;exitX=1;exitY=0.5;exitDx=0;exitDy=0;entryX=0;entryY=0.5;entryDx=0;entryDy=0;" parent="1" source="L6Xld-LW8p7NnnAA7x7a-88" target="L6Xld-LW8p7NnnAA7x7a-93" edge="1">
          <mxGeometry relative="1" as="geometry" />
        </mxCell>
        <mxCell id="L6Xld-LW8p7NnnAA7x7a-88" value="get_folder_locaton()" style="rounded=0;whiteSpace=wrap;html=1;" parent="1" vertex="1">
          <mxGeometry x="280" y="190" width="120" height="60" as="geometry" />
        </mxCell>
        <mxCell id="L6Xld-LW8p7NnnAA7x7a-95" style="edgeStyle=orthogonalEdgeStyle;rounded=0;orthogonalLoop=1;jettySize=auto;html=1;exitX=1;exitY=0.5;exitDx=0;exitDy=0;" parent="1" source="L6Xld-LW8p7NnnAA7x7a-89" edge="1">
          <mxGeometry relative="1" as="geometry">
            <mxPoint x="500" y="310" as="targetPoint" />
          </mxGeometry>
        </mxCell>
        <mxCell id="L6Xld-LW8p7NnnAA7x7a-89" value="folder_handler()&lt;br&gt;&lt;font style=&quot;&quot;&gt;&lt;font style=&quot;font-size: 10px;&quot;&gt;- folder_path&lt;/font&gt;&lt;br&gt;&lt;/font&gt;" style="rounded=0;whiteSpace=wrap;html=1;" parent="1" vertex="1">
          <mxGeometry x="280" y="280" width="120" height="60" as="geometry" />
        </mxCell>
        <mxCell id="L6Xld-LW8p7NnnAA7x7a-93" value="folder_path" style="rounded=0;whiteSpace=wrap;html=1;fillColor=#f5f5f5;fontColor=#333333;strokeColor=#666666;" parent="1" vertex="1">
          <mxGeometry x="500" y="190" width="120" height="60" as="geometry" />
        </mxCell>
        <mxCell id="L6Xld-LW8p7NnnAA7x7a-96" value="(list) - detected_files" style="rounded=0;whiteSpace=wrap;html=1;fillColor=#f5f5f5;fontColor=#333333;strokeColor=#666666;" parent="1" vertex="1">
          <mxGeometry x="500" y="280" width="120" height="60" as="geometry" />
        </mxCell>
        <mxCell id="L6Xld-LW8p7NnnAA7x7a-100" value="error_handler" style="rounded=0;whiteSpace=wrap;html=1;fillColor=#f8cecc;strokeColor=#b85450;" parent="1" vertex="1">
          <mxGeometry x="500" y="100" width="120" height="60" as="geometry" />
        </mxCell>
        <mxCell id="VoekotqQAeG9E4cFTFF6-4" style="edgeStyle=orthogonalEdgeStyle;rounded=0;orthogonalLoop=1;jettySize=auto;html=1;exitX=1;exitY=0.5;exitDx=0;exitDy=0;entryX=0;entryY=0.5;entryDx=0;entryDy=0;" edge="1" parent="1" source="VoekotqQAeG9E4cFTFF6-1" target="VoekotqQAeG9E4cFTFF6-3">
          <mxGeometry relative="1" as="geometry" />
        </mxCell>
        <mxCell id="VoekotqQAeG9E4cFTFF6-33" style="edgeStyle=orthogonalEdgeStyle;rounded=0;orthogonalLoop=1;jettySize=auto;html=1;exitX=1;exitY=0.5;exitDx=0;exitDy=0;entryX=0;entryY=0.5;entryDx=0;entryDy=0;" edge="1" parent="1" source="VoekotqQAeG9E4cFTFF6-1" target="VoekotqQAeG9E4cFTFF6-28">
          <mxGeometry relative="1" as="geometry" />
        </mxCell>
        <mxCell id="VoekotqQAeG9E4cFTFF6-41" style="edgeStyle=orthogonalEdgeStyle;rounded=0;orthogonalLoop=1;jettySize=auto;html=1;exitX=1;exitY=0.5;exitDx=0;exitDy=0;entryX=0;entryY=0.5;entryDx=0;entryDy=0;" edge="1" parent="1" source="VoekotqQAeG9E4cFTFF6-1" target="VoekotqQAeG9E4cFTFF6-40">
          <mxGeometry relative="1" as="geometry" />
        </mxCell>
        <mxCell id="VoekotqQAeG9E4cFTFF6-1" value="file_handler()&lt;br&gt;&lt;font style=&quot;&quot;&gt;&lt;font style=&quot;font-size: 10px;&quot;&gt;- file_path&lt;/font&gt;&lt;br&gt;&lt;/font&gt;" style="rounded=0;whiteSpace=wrap;html=1;" vertex="1" parent="1">
          <mxGeometry x="280" y="370" width="120" height="60" as="geometry" />
        </mxCell>
        <mxCell id="VoekotqQAeG9E4cFTFF6-30" style="edgeStyle=orthogonalEdgeStyle;rounded=0;orthogonalLoop=1;jettySize=auto;html=1;exitX=1;exitY=0.5;exitDx=0;exitDy=0;entryX=0;entryY=0.5;entryDx=0;entryDy=0;" edge="1" parent="1" source="VoekotqQAeG9E4cFTFF6-3" target="VoekotqQAeG9E4cFTFF6-29">
          <mxGeometry relative="1" as="geometry" />
        </mxCell>
        <mxCell id="VoekotqQAeG9E4cFTFF6-3" value="run_pycodestyle()&lt;font style=&quot;&quot;&gt;&lt;br&gt;&lt;/font&gt;" style="rounded=0;whiteSpace=wrap;html=1;" vertex="1" parent="1">
          <mxGeometry x="470" y="370" width="120" height="60" as="geometry" />
        </mxCell>
        <mxCell id="VoekotqQAeG9E4cFTFF6-27" style="edgeStyle=orthogonalEdgeStyle;rounded=0;orthogonalLoop=1;jettySize=auto;html=1;exitX=1;exitY=0.5;exitDx=0;exitDy=0;entryX=0;entryY=0.5;entryDx=0;entryDy=0;" edge="1" parent="1" source="VoekotqQAeG9E4cFTFF6-5" target="VoekotqQAeG9E4cFTFF6-26">
          <mxGeometry relative="1" as="geometry" />
        </mxCell>
        <mxCell id="VoekotqQAeG9E4cFTFF6-5" value="violation_check()&lt;br&gt;&lt;font style=&quot;&quot;&gt;&lt;span style=&quot;font-size: 10px;&quot;&gt;- file_content&lt;/span&gt;&lt;br&gt;&lt;/font&gt;" style="rounded=0;whiteSpace=wrap;html=1;" vertex="1" parent="1">
          <mxGeometry x="260" y="960" width="150" height="60" as="geometry" />
        </mxCell>
        <mxCell id="VoekotqQAeG9E4cFTFF6-9" style="edgeStyle=orthogonalEdgeStyle;rounded=0;orthogonalLoop=1;jettySize=auto;html=1;exitX=1;exitY=0.5;exitDx=0;exitDy=0;entryX=0;entryY=0.5;entryDx=0;entryDy=0;" edge="1" parent="1" source="VoekotqQAeG9E4cFTFF6-7" target="VoekotqQAeG9E4cFTFF6-8">
          <mxGeometry relative="1" as="geometry" />
        </mxCell>
        <mxCell id="VoekotqQAeG9E4cFTFF6-7" value="get_file_content()&lt;br&gt;&lt;font style=&quot;&quot;&gt;- file_path&lt;br&gt;&lt;/font&gt;" style="rounded=0;whiteSpace=wrap;html=1;" vertex="1" parent="1">
          <mxGeometry x="820" y="325" width="120" height="60" as="geometry" />
        </mxCell>
        <mxCell id="VoekotqQAeG9E4cFTFF6-8" value="(list) - strings representing the content of the file" style="rounded=0;whiteSpace=wrap;html=1;fillColor=#f5f5f5;fontColor=#333333;strokeColor=#666666;" vertex="1" parent="1">
          <mxGeometry x="1003" y="325" width="120" height="60" as="geometry" />
        </mxCell>
        <mxCell id="VoekotqQAeG9E4cFTFF6-14" style="edgeStyle=orthogonalEdgeStyle;rounded=0;orthogonalLoop=1;jettySize=auto;html=1;exitX=1;exitY=0.5;exitDx=0;exitDy=0;entryX=0;entryY=0.5;entryDx=0;entryDy=0;" edge="1" parent="1" source="VoekotqQAeG9E4cFTFF6-11" target="VoekotqQAeG9E4cFTFF6-13">
          <mxGeometry relative="1" as="geometry" />
        </mxCell>
        <mxCell id="VoekotqQAeG9E4cFTFF6-11" value="&lt;font style=&quot;&quot;&gt;get_execution_list()&lt;br&gt;&lt;/font&gt;" style="rounded=0;whiteSpace=wrap;html=1;" vertex="1" parent="1">
          <mxGeometry x="820" y="415" width="120" height="60" as="geometry" />
        </mxCell>
        <mxCell id="VoekotqQAeG9E4cFTFF6-13" value="violation_check()&lt;br&gt;violation_corrective_action()" style="rounded=0;whiteSpace=wrap;html=1;fillColor=#f5f5f5;fontColor=#333333;strokeColor=#666666;" vertex="1" parent="1">
          <mxGeometry x="1003" y="415" width="180" height="60" as="geometry" />
        </mxCell>
        <mxCell id="VoekotqQAeG9E4cFTFF6-42" style="edgeStyle=orthogonalEdgeStyle;rounded=0;orthogonalLoop=1;jettySize=auto;html=1;exitX=1;exitY=0.5;exitDx=0;exitDy=0;entryX=0;entryY=0.5;entryDx=0;entryDy=0;" edge="1" parent="1" source="VoekotqQAeG9E4cFTFF6-15" target="VoekotqQAeG9E4cFTFF6-5">
          <mxGeometry relative="1" as="geometry" />
        </mxCell>
        <mxCell id="VoekotqQAeG9E4cFTFF6-43" style="edgeStyle=orthogonalEdgeStyle;rounded=0;orthogonalLoop=1;jettySize=auto;html=1;exitX=1;exitY=0.5;exitDx=0;exitDy=0;entryX=0;entryY=0.5;entryDx=0;entryDy=0;" edge="1" parent="1" source="VoekotqQAeG9E4cFTFF6-15" target="VoekotqQAeG9E4cFTFF6-25">
          <mxGeometry relative="1" as="geometry" />
        </mxCell>
        <mxCell id="VoekotqQAeG9E4cFTFF6-46" style="edgeStyle=orthogonalEdgeStyle;rounded=0;orthogonalLoop=1;jettySize=auto;html=1;exitX=0.5;exitY=0;exitDx=0;exitDy=0;entryX=0;entryY=0.5;entryDx=0;entryDy=0;" edge="1" parent="1" source="VoekotqQAeG9E4cFTFF6-15" target="VoekotqQAeG9E4cFTFF6-19">
          <mxGeometry relative="1" as="geometry" />
        </mxCell>
        <mxCell id="VoekotqQAeG9E4cFTFF6-15" value="analyze()&lt;font style=&quot;&quot;&gt;&lt;br&gt;&lt;/font&gt;" style="rounded=0;whiteSpace=wrap;html=1;" vertex="1" parent="1">
          <mxGeometry x="50" y="1020" width="120" height="60" as="geometry" />
        </mxCell>
        <mxCell id="VoekotqQAeG9E4cFTFF6-19" value="error_handler" style="rounded=0;whiteSpace=wrap;html=1;fillColor=#f8cecc;strokeColor=#b85450;" vertex="1" parent="1">
          <mxGeometry x="265" y="830" width="140" height="65" as="geometry" />
        </mxCell>
        <mxCell id="VoekotqQAeG9E4cFTFF6-44" style="edgeStyle=orthogonalEdgeStyle;rounded=0;orthogonalLoop=1;jettySize=auto;html=1;exitX=1;exitY=0.5;exitDx=0;exitDy=0;" edge="1" parent="1" source="VoekotqQAeG9E4cFTFF6-25">
          <mxGeometry relative="1" as="geometry">
            <mxPoint x="520" y="1110" as="targetPoint" />
          </mxGeometry>
        </mxCell>
        <mxCell id="VoekotqQAeG9E4cFTFF6-25" value="&lt;font style=&quot;&quot;&gt;&lt;font style=&quot;font-size: 12px;&quot;&gt;corrective_action()&lt;/font&gt;&lt;br&gt;&lt;/font&gt;&lt;font style=&quot;&quot;&gt;&lt;font style=&quot;font-size: 10px;&quot;&gt;- file_path&lt;br&gt;- file_content&lt;br&gt;- (list) violations&lt;/font&gt;&lt;br&gt;&lt;/font&gt;" style="rounded=0;whiteSpace=wrap;html=1;" vertex="1" parent="1">
          <mxGeometry x="260" y="1070" width="150" height="80" as="geometry" />
        </mxCell>
        <mxCell id="VoekotqQAeG9E4cFTFF6-26" value="(list) - violations or None" style="rounded=0;whiteSpace=wrap;html=1;fillColor=#f5f5f5;fontColor=#333333;strokeColor=#666666;" vertex="1" parent="1">
          <mxGeometry x="510" y="960" width="120" height="60" as="geometry" />
        </mxCell>
        <mxCell id="VoekotqQAeG9E4cFTFF6-38" style="edgeStyle=orthogonalEdgeStyle;rounded=0;orthogonalLoop=1;jettySize=auto;html=1;exitX=1;exitY=0.5;exitDx=0;exitDy=0;entryX=0;entryY=0.5;entryDx=0;entryDy=0;" edge="1" parent="1" source="VoekotqQAeG9E4cFTFF6-28" target="VoekotqQAeG9E4cFTFF6-34">
          <mxGeometry relative="1" as="geometry" />
        </mxCell>
        <mxCell id="VoekotqQAeG9E4cFTFF6-39" style="edgeStyle=orthogonalEdgeStyle;rounded=0;orthogonalLoop=1;jettySize=auto;html=1;exitX=1;exitY=0.5;exitDx=0;exitDy=0;entryX=0;entryY=0.5;entryDx=0;entryDy=0;" edge="1" parent="1" source="VoekotqQAeG9E4cFTFF6-28" target="VoekotqQAeG9E4cFTFF6-35">
          <mxGeometry relative="1" as="geometry" />
        </mxCell>
        <mxCell id="VoekotqQAeG9E4cFTFF6-28" value="parse_pycodestyle_output()&lt;br&gt;&lt;font style=&quot;&quot;&gt;- (list) violations&lt;br&gt;&lt;/font&gt;" style="rounded=0;whiteSpace=wrap;html=1;" vertex="1" parent="1">
          <mxGeometry x="450" y="510" width="160" height="60" as="geometry" />
        </mxCell>
        <mxCell id="VoekotqQAeG9E4cFTFF6-31" style="edgeStyle=orthogonalEdgeStyle;rounded=0;orthogonalLoop=1;jettySize=auto;html=1;exitX=1;exitY=0.5;exitDx=0;exitDy=0;entryX=0;entryY=0.5;entryDx=0;entryDy=0;" edge="1" parent="1" source="VoekotqQAeG9E4cFTFF6-29" target="VoekotqQAeG9E4cFTFF6-7">
          <mxGeometry relative="1" as="geometry" />
        </mxCell>
        <mxCell id="VoekotqQAeG9E4cFTFF6-32" style="edgeStyle=orthogonalEdgeStyle;rounded=0;orthogonalLoop=1;jettySize=auto;html=1;exitX=1;exitY=0.5;exitDx=0;exitDy=0;entryX=0;entryY=0.5;entryDx=0;entryDy=0;" edge="1" parent="1" source="VoekotqQAeG9E4cFTFF6-29" target="VoekotqQAeG9E4cFTFF6-11">
          <mxGeometry relative="1" as="geometry" />
        </mxCell>
        <mxCell id="VoekotqQAeG9E4cFTFF6-29" value="analyze()&lt;font style=&quot;&quot;&gt;&lt;br&gt;&lt;/font&gt;" style="rounded=0;whiteSpace=wrap;html=1;" vertex="1" parent="1">
          <mxGeometry x="660" y="370" width="120" height="60" as="geometry" />
        </mxCell>
        <mxCell id="VoekotqQAeG9E4cFTFF6-34" value="False" style="rounded=0;whiteSpace=wrap;html=1;fillColor=#f5f5f5;fontColor=#333333;strokeColor=#666666;" vertex="1" parent="1">
          <mxGeometry x="670" y="480" width="110" height="40" as="geometry" />
        </mxCell>
        <mxCell id="VoekotqQAeG9E4cFTFF6-35" value="True" style="rounded=0;whiteSpace=wrap;html=1;fillColor=#f5f5f5;fontColor=#333333;strokeColor=#666666;" vertex="1" parent="1">
          <mxGeometry x="670" y="560" width="110" height="40" as="geometry" />
        </mxCell>
        <mxCell id="VoekotqQAeG9E4cFTFF6-40" value="file_open()&lt;br&gt;&lt;font style=&quot;&quot;&gt;- file_path&lt;br&gt;&lt;/font&gt;" style="rounded=0;whiteSpace=wrap;html=1;" vertex="1" parent="1">
          <mxGeometry x="450" y="640" width="150" height="60" as="geometry" />
        </mxCell>
        <mxCell id="VoekotqQAeG9E4cFTFF6-45" value="write_to_file()&lt;br&gt;&lt;font style=&quot;&quot;&gt;&lt;span style=&quot;font-size: 10px;&quot;&gt;- file_content&lt;/span&gt;&lt;br&gt;&lt;/font&gt;" style="rounded=0;whiteSpace=wrap;html=1;" vertex="1" parent="1">
          <mxGeometry x="520" y="1080" width="150" height="60" as="geometry" />
        </mxCell>
      </root>
    </mxGraphModel>
  </diagram>
  <diagram id="f8035tnk3F5eiQ0biBER" name="Page-2">
    <mxGraphModel dx="607" dy="746" grid="0" gridSize="10" guides="1" tooltips="1" connect="1" arrows="1" fold="1" page="1" pageScale="1" pageWidth="827" pageHeight="1169" math="0" shadow="0">
      <root>
        <mxCell id="0" />
        <mxCell id="1" parent="0" />
        <mxCell id="aXS_40qr4vdWT7cOSmGn-1" style="edgeStyle=orthogonalEdgeStyle;rounded=0;orthogonalLoop=1;jettySize=auto;html=1;exitX=1;exitY=0.5;exitDx=0;exitDy=0;entryX=0;entryY=0.5;entryDx=0;entryDy=0;" edge="1" parent="1" source="aXS_40qr4vdWT7cOSmGn-2" target="aXS_40qr4vdWT7cOSmGn-5">
          <mxGeometry relative="1" as="geometry" />
        </mxCell>
        <mxCell id="aXS_40qr4vdWT7cOSmGn-2" value="START" style="ellipse;whiteSpace=wrap;html=1;fillColor=#f5f5f5;fontColor=#333333;strokeColor=#666666;shadow=0;fontStyle=1;fontSize=10;" vertex="1" parent="1">
          <mxGeometry x="901" y="313" width="80" height="40" as="geometry" />
        </mxCell>
        <mxCell id="aXS_40qr4vdWT7cOSmGn-3" value="STOP" style="ellipse;whiteSpace=wrap;html=1;fillColor=#f5f5f5;fontColor=#333333;strokeColor=#666666;shadow=0;fontStyle=1;fontSize=10;" vertex="1" parent="1">
          <mxGeometry x="1473.5" y="783" width="80" height="40" as="geometry" />
        </mxCell>
        <mxCell id="aXS_40qr4vdWT7cOSmGn-4" style="edgeStyle=orthogonalEdgeStyle;rounded=0;orthogonalLoop=1;jettySize=auto;html=1;exitX=1;exitY=0.5;exitDx=0;exitDy=0;entryX=0;entryY=0.5;entryDx=0;entryDy=0;" edge="1" parent="1" source="aXS_40qr4vdWT7cOSmGn-5" target="aXS_40qr4vdWT7cOSmGn-7">
          <mxGeometry relative="1" as="geometry" />
        </mxCell>
        <mxCell id="aXS_40qr4vdWT7cOSmGn-5" value="Create a new project" style="rounded=1;whiteSpace=wrap;html=1;" vertex="1" parent="1">
          <mxGeometry x="1031" y="313" width="120" height="40" as="geometry" />
        </mxCell>
        <mxCell id="aXS_40qr4vdWT7cOSmGn-6" style="edgeStyle=orthogonalEdgeStyle;rounded=0;orthogonalLoop=1;jettySize=auto;html=1;exitX=1;exitY=0.5;exitDx=0;exitDy=0;entryX=0;entryY=0.5;entryDx=0;entryDy=0;" edge="1" parent="1" source="aXS_40qr4vdWT7cOSmGn-7" target="aXS_40qr4vdWT7cOSmGn-9">
          <mxGeometry relative="1" as="geometry" />
        </mxCell>
        <mxCell id="aXS_40qr4vdWT7cOSmGn-7" value="Parameter configuration" style="rounded=1;whiteSpace=wrap;html=1;" vertex="1" parent="1">
          <mxGeometry x="1221" y="313" width="120" height="40" as="geometry" />
        </mxCell>
        <mxCell id="aXS_40qr4vdWT7cOSmGn-8" style="edgeStyle=orthogonalEdgeStyle;rounded=0;orthogonalLoop=1;jettySize=auto;html=1;exitX=1;exitY=0.5;exitDx=0;exitDy=0;entryX=1;entryY=0.5;entryDx=0;entryDy=0;" edge="1" parent="1" source="aXS_40qr4vdWT7cOSmGn-9" target="aXS_40qr4vdWT7cOSmGn-14">
          <mxGeometry relative="1" as="geometry" />
        </mxCell>
        <mxCell id="aXS_40qr4vdWT7cOSmGn-9" value="Generating the configuration file" style="rounded=1;whiteSpace=wrap;html=1;" vertex="1" parent="1">
          <mxGeometry x="1411" y="313" width="120" height="40" as="geometry" />
        </mxCell>
        <mxCell id="aXS_40qr4vdWT7cOSmGn-10" style="edgeStyle=orthogonalEdgeStyle;rounded=0;orthogonalLoop=1;jettySize=auto;html=1;exitX=0;exitY=0.5;exitDx=0;exitDy=0;entryX=0.5;entryY=1;entryDx=0;entryDy=0;fillColor=#f8cecc;strokeColor=#b85450;" edge="1" parent="1" source="aXS_40qr4vdWT7cOSmGn-14" target="aXS_40qr4vdWT7cOSmGn-5">
          <mxGeometry relative="1" as="geometry" />
        </mxCell>
        <mxCell id="aXS_40qr4vdWT7cOSmGn-11" value="FAIL" style="edgeLabel;html=1;align=center;verticalAlign=middle;resizable=0;points=[];" vertex="1" connectable="0" parent="aXS_40qr4vdWT7cOSmGn-10">
          <mxGeometry x="-0.6" y="3" relative="1" as="geometry">
            <mxPoint as="offset" />
          </mxGeometry>
        </mxCell>
        <mxCell id="aXS_40qr4vdWT7cOSmGn-12" style="edgeStyle=orthogonalEdgeStyle;rounded=0;orthogonalLoop=1;jettySize=auto;html=1;exitX=0.5;exitY=1;exitDx=0;exitDy=0;entryX=1;entryY=0.5;entryDx=0;entryDy=0;fillColor=#d5e8d4;strokeColor=#82b366;" edge="1" parent="1" source="aXS_40qr4vdWT7cOSmGn-14" target="aXS_40qr4vdWT7cOSmGn-16">
          <mxGeometry relative="1" as="geometry" />
        </mxCell>
        <mxCell id="aXS_40qr4vdWT7cOSmGn-13" value="PASS" style="edgeLabel;html=1;align=center;verticalAlign=middle;resizable=0;points=[];" vertex="1" connectable="0" parent="aXS_40qr4vdWT7cOSmGn-12">
          <mxGeometry relative="1" as="geometry">
            <mxPoint as="offset" />
          </mxGeometry>
        </mxCell>
        <mxCell id="aXS_40qr4vdWT7cOSmGn-14" value="Configuration file validation" style="rhombus;whiteSpace=wrap;html=1;" vertex="1" parent="1">
          <mxGeometry x="1211" y="373" width="130" height="110" as="geometry" />
        </mxCell>
        <mxCell id="aXS_40qr4vdWT7cOSmGn-15" style="edgeStyle=orthogonalEdgeStyle;rounded=0;orthogonalLoop=1;jettySize=auto;html=1;exitX=0.5;exitY=1;exitDx=0;exitDy=0;entryX=0.5;entryY=0;entryDx=0;entryDy=0;" edge="1" parent="1" source="aXS_40qr4vdWT7cOSmGn-16" target="aXS_40qr4vdWT7cOSmGn-29">
          <mxGeometry relative="1" as="geometry" />
        </mxCell>
        <mxCell id="aXS_40qr4vdWT7cOSmGn-16" value="Loading an image into the graphics scene" style="rounded=1;whiteSpace=wrap;html=1;" vertex="1" parent="1">
          <mxGeometry x="1031" y="483" width="120" height="50" as="geometry" />
        </mxCell>
        <mxCell id="aXS_40qr4vdWT7cOSmGn-17" style="edgeStyle=orthogonalEdgeStyle;rounded=0;orthogonalLoop=1;jettySize=auto;html=1;exitX=0.5;exitY=1;exitDx=0;exitDy=0;entryX=0.5;entryY=0;entryDx=0;entryDy=0;" edge="1" parent="1" source="aXS_40qr4vdWT7cOSmGn-18" target="aXS_40qr4vdWT7cOSmGn-32">
          <mxGeometry relative="1" as="geometry" />
        </mxCell>
        <mxCell id="aXS_40qr4vdWT7cOSmGn-18" value="Object annotation" style="rounded=1;whiteSpace=wrap;html=1;" vertex="1" parent="1">
          <mxGeometry x="921" y="578" width="120" height="40" as="geometry" />
        </mxCell>
        <mxCell id="aXS_40qr4vdWT7cOSmGn-19" style="edgeStyle=orthogonalEdgeStyle;rounded=0;orthogonalLoop=1;jettySize=auto;html=1;exitX=1;exitY=0.5;exitDx=0;exitDy=0;entryX=0;entryY=0.5;entryDx=0;entryDy=0;fillColor=#d5e8d4;strokeColor=#82b366;" edge="1" parent="1" source="aXS_40qr4vdWT7cOSmGn-22" target="aXS_40qr4vdWT7cOSmGn-34">
          <mxGeometry relative="1" as="geometry" />
        </mxCell>
        <mxCell id="aXS_40qr4vdWT7cOSmGn-20" value="YES" style="edgeLabel;html=1;align=center;verticalAlign=middle;resizable=0;points=[];" vertex="1" connectable="0" parent="aXS_40qr4vdWT7cOSmGn-19">
          <mxGeometry x="-0.0286" relative="1" as="geometry">
            <mxPoint as="offset" />
          </mxGeometry>
        </mxCell>
        <mxCell id="aXS_40qr4vdWT7cOSmGn-21" style="edgeStyle=orthogonalEdgeStyle;rounded=0;orthogonalLoop=1;jettySize=auto;html=1;exitX=0.5;exitY=1;exitDx=0;exitDy=0;entryX=0.5;entryY=1;entryDx=0;entryDy=0;fillColor=#f8cecc;strokeColor=#b85450;" edge="1" parent="1" source="aXS_40qr4vdWT7cOSmGn-22" target="aXS_40qr4vdWT7cOSmGn-32">
          <mxGeometry relative="1" as="geometry" />
        </mxCell>
        <mxCell id="aXS_40qr4vdWT7cOSmGn-22" value="Annotations save" style="rhombus;whiteSpace=wrap;html=1;" vertex="1" parent="1">
          <mxGeometry x="1221" y="638" width="125" height="90" as="geometry" />
        </mxCell>
        <mxCell id="aXS_40qr4vdWT7cOSmGn-23" style="edgeStyle=orthogonalEdgeStyle;rounded=0;orthogonalLoop=1;jettySize=auto;html=1;exitX=0.5;exitY=1;exitDx=0;exitDy=0;entryX=0.5;entryY=0;entryDx=0;entryDy=0;fillColor=#d5e8d4;strokeColor=#82b366;" edge="1" parent="1" source="aXS_40qr4vdWT7cOSmGn-27" target="aXS_40qr4vdWT7cOSmGn-3">
          <mxGeometry relative="1" as="geometry" />
        </mxCell>
        <mxCell id="aXS_40qr4vdWT7cOSmGn-24" value="YES" style="edgeLabel;html=1;align=center;verticalAlign=middle;resizable=0;points=[];" vertex="1" connectable="0" parent="aXS_40qr4vdWT7cOSmGn-23">
          <mxGeometry x="-0.0182" y="2" relative="1" as="geometry">
            <mxPoint as="offset" />
          </mxGeometry>
        </mxCell>
        <mxCell id="aXS_40qr4vdWT7cOSmGn-25" style="edgeStyle=orthogonalEdgeStyle;rounded=0;orthogonalLoop=1;jettySize=auto;html=1;exitX=0;exitY=0.5;exitDx=0;exitDy=0;entryX=0.5;entryY=1;entryDx=0;entryDy=0;fillColor=#f8cecc;strokeColor=#b85450;" edge="1" parent="1" source="aXS_40qr4vdWT7cOSmGn-27" target="aXS_40qr4vdWT7cOSmGn-32">
          <mxGeometry relative="1" as="geometry">
            <Array as="points">
              <mxPoint x="1451" y="748" />
              <mxPoint x="1091" y="748" />
            </Array>
          </mxGeometry>
        </mxCell>
        <mxCell id="aXS_40qr4vdWT7cOSmGn-26" value="NO" style="edgeLabel;html=1;align=center;verticalAlign=middle;resizable=0;points=[];" vertex="1" connectable="0" parent="aXS_40qr4vdWT7cOSmGn-25">
          <mxGeometry x="-0.0213" relative="1" as="geometry">
            <mxPoint as="offset" />
          </mxGeometry>
        </mxCell>
        <mxCell id="aXS_40qr4vdWT7cOSmGn-27" value="Annotation file &lt;br&gt;export" style="rhombus;whiteSpace=wrap;html=1;" vertex="1" parent="1">
          <mxGeometry x="1451" y="638" width="125" height="90" as="geometry" />
        </mxCell>
        <mxCell id="aXS_40qr4vdWT7cOSmGn-28" style="edgeStyle=orthogonalEdgeStyle;rounded=0;orthogonalLoop=1;jettySize=auto;html=1;exitX=0.5;exitY=1;exitDx=0;exitDy=0;entryX=0.5;entryY=0;entryDx=0;entryDy=0;" edge="1" parent="1" source="aXS_40qr4vdWT7cOSmGn-29" target="aXS_40qr4vdWT7cOSmGn-32">
          <mxGeometry relative="1" as="geometry" />
        </mxCell>
        <mxCell id="aXS_40qr4vdWT7cOSmGn-29" value="Automatic detection" style="rounded=1;whiteSpace=wrap;html=1;" vertex="1" parent="1">
          <mxGeometry x="1145" y="578" width="120" height="40" as="geometry" />
        </mxCell>
        <mxCell id="aXS_40qr4vdWT7cOSmGn-30" style="edgeStyle=orthogonalEdgeStyle;rounded=0;orthogonalLoop=1;jettySize=auto;html=1;exitX=0.5;exitY=1;exitDx=0;exitDy=0;entryX=0.417;entryY=0.025;entryDx=0;entryDy=0;entryPerimeter=0;" edge="1" parent="1" source="aXS_40qr4vdWT7cOSmGn-16" target="aXS_40qr4vdWT7cOSmGn-18">
          <mxGeometry relative="1" as="geometry" />
        </mxCell>
        <mxCell id="aXS_40qr4vdWT7cOSmGn-31" style="edgeStyle=orthogonalEdgeStyle;rounded=0;orthogonalLoop=1;jettySize=auto;html=1;exitX=1;exitY=0.5;exitDx=0;exitDy=0;entryX=0;entryY=0.5;entryDx=0;entryDy=0;" edge="1" parent="1" source="aXS_40qr4vdWT7cOSmGn-32" target="aXS_40qr4vdWT7cOSmGn-22">
          <mxGeometry relative="1" as="geometry" />
        </mxCell>
        <mxCell id="aXS_40qr4vdWT7cOSmGn-32" value="AnnotationHandler" style="rounded=1;whiteSpace=wrap;html=1;" vertex="1" parent="1">
          <mxGeometry x="1031" y="663" width="120" height="40" as="geometry" />
        </mxCell>
        <mxCell id="aXS_40qr4vdWT7cOSmGn-33" style="edgeStyle=orthogonalEdgeStyle;rounded=0;orthogonalLoop=1;jettySize=auto;html=1;exitX=0.5;exitY=1;exitDx=0;exitDy=0;entryX=0.5;entryY=0;entryDx=0;entryDy=0;" edge="1" parent="1" source="aXS_40qr4vdWT7cOSmGn-34" target="aXS_40qr4vdWT7cOSmGn-27">
          <mxGeometry relative="1" as="geometry" />
        </mxCell>
        <mxCell id="aXS_40qr4vdWT7cOSmGn-34" value="ExportDialog Module" style="rounded=1;whiteSpace=wrap;html=1;" vertex="1" parent="1">
          <mxGeometry x="1453.5" y="533" width="120" height="40" as="geometry" />
        </mxCell>
      </root>
    </mxGraphModel>
  </diagram>
</mxfile>
